HIERARCHY
ROOT Hips
{
  OFFSET 0.000000 0.000000 0.000000
  CHANNELS 6 Xposition Yposition Zposition Zrotation Xrotation Yrotation
  JOINT Spine
  {
    OFFSET -0.004279 0.082255 -0.012354
    CHANNELS 3 Zrotation Xrotation Yrotation
    JOINT Spine1
    {
      OFFSET -0.016761 0.114982 -0.020640
      CHANNELS 3 Zrotation Xrotation Yrotation
      JOINT Spine2
      {
        OFFSET -0.016818 0.133492 -0.029232
        CHANNELS 3 Zrotation Xrotation Yrotation
        JOINT Neck
        {
          OFFSET -0.021696 0.134468 -0.020126
          CHANNELS 3 Zrotation Xrotation Yrotation
          JOINT Head
          {
            OFFSET -0.043307 0.090494 -0.083544
            CHANNELS 3 Zrotation Xrotation Yrotation
            End Site
            {
              OFFSET -0.012992 0.027148 -0.025063
            }
          }
        }
        JOINT LeftShoulder
        {
          OFFSET -0.007070 0.045689 -0.046516
          CHANNELS 3 Zrotation Xrotation Yrotation
          JOINT LeftArm
          {
            OFFSET 0.110265 0.010911 -0.123529
            CHANNELS 3 Zrotation Xrotation Yrotation
            JOINT LeftForeArm
            {
              OFFSET 0.225779 -0.124962 -0.032504
              CHANNELS 3 Zrotation Xrotation Yrotation
              JOINT LeftForeArmRoll
              {
                OFFSET -0.017544 -0.056005 -0.114083
                CHANNELS 3 Zrotation Xrotation Yrotation
                JOINT LeftHand
                {
                  OFFSET -0.017544 -0.056005 -0.114083
                  CHANNELS 3 Zrotation Xrotation Yrotation
                  End Site
                  {
                    OFFSET -0.005263 -0.016801 -0.034225
                  }
                }
              }
            }
          }
        }
        JOINT RightShoulder
        {
          OFFSET -0.044675 0.044715 -0.005466
          CHANNELS 3 Zrotation Xrotation Yrotation
          JOINT RightArm
          {
            OFFSET -0.116167 -0.007886 0.123545
            CHANNELS 3 Zrotation Xrotation Yrotation
            JOINT RightForeArm
            {
              OFFSET -0.080455 -0.175605 0.156422
              CHANNELS 3 Zrotation Xrotation Yrotation
              JOINT RightForeArmRoll
              {
                OFFSET -0.052905 -0.122504 0.038018
                CHANNELS 3 Zrotation Xrotation Yrotation
                JOINT RightHand
                {
                  OFFSET -0.052905 -0.122504 0.038018
                  CHANNELS 3 Zrotation Xrotation Yrotation
                  End Site
                  {
                    OFFSET -0.015872 -0.036751 0.011405
                  }
                }
              }
            }
          }
        }
      }
    }
  }
  JOINT LeftUpLeg
  {
    OFFSET 0.043627 -0.065641 -0.095028
    CHANNELS 3 Zrotation Xrotation Yrotation
    JOINT LeftLeg
    {
      OFFSET -0.123260 -0.510667 0.082393
      CHANNELS 3 Zrotation Xrotation Yrotation
      JOINT LeftFoot
      {
        OFFSET 0.065185 -0.463193 0.200436
        CHANNELS 3 Zrotation Xrotation Yrotation
        JOINT LeftToeBase
        {
          OFFSET -0.065490 -0.009531 -0.098698
          CHANNELS 3 Zrotation Xrotation Yrotation
          End Site
          {
            OFFSET -0.019647 -0.002859 -0.029610
          }
        }
      }
    }
  }
  JOINT RightUpLeg
  {
    OFFSET -0.081212 -0.025975 0.089289
    CHANNELS 3 Zrotation Xrotation Yrotation
    JOINT RightLeg
    {
      OFFSET -0.177681 -0.496298 0.048099
      CHANNELS 3 Zrotation Xrotation Yrotation
      JOINT RightFoot
      {
        OFFSET 0.135614 -0.443315 0.186312
        CHANNELS 3 Zrotation Xrotation Yrotation
        JOINT RightToeBase
        {
          OFFSET -0.087273 -0.037052 -0.064678
          CHANNELS 3 Zrotation Xrotation Yrotation
          End Site
          {
            OFFSET -0.026182 -0.011116 -0.019403
          }
        }
      }
    }
  }
}
MOTION
Frames: 13
Frame Time: 0.010000
0.247673 1.034359 -0.494625 85.433859 8.622904 -13.382420 -23.675965 4.869103 -25.022027 -10.134319 -0.165721 3.394756 -0.466465 4.293361 -1.966429 -19.743043 -15.875811 1.562919 -9.137618 -8.397266 1.929838 -11.762517 6.945422 -3.872226 -44.202324 22.402248 62.751262 47.410437 -20.979037 -30.462803 -5.620067 -18.514143 -5.400967 -24.252844 -18.515504 32.070202 -1.245312 3.011573 -2.158553 -1.181733 4.774946 -53.742327 -3.558365 -16.259892 -13.211810 10.665779 -2.998903 -6.988997 12.185411 -27.973146 15.235326 -7.955724 -26.562730 7.098936 -13.449345 47.597444 -52.230734 -12.461170 -15.498473 -120.334849 19.579814 2.885289 2.484960 13.355086 -43.582732 47.860889 12.576035 -11.046771 -21.905799 -1.732506 -32.143918 174.249635 -11.252458 -7.819025 30.197138
0.260945 1.036432 -0.510263 84.767401 8.421816 -13.377470 -23.526621 5.296252 -25.147307 -9.925103 -0.221217 3.241511 -0.305082 3.866989 -1.803737 -20.036116 -15.840935 1.864435 -9.277024 -8.382498 2.082863 -11.569773 7.100700 -3.527982 -43.876265 22.342513 64.106002 47.538776 -21.427197 -30.109915 -5.236002 -18.435419 -5.394769 -23.158962 -18.783185 32.187728 -0.641826 2.593775 -2.048247 -0.335182 5.301058 -53.642620 -3.421143 -16.546826 -13.463941 11.062978 -2.868343 -7.084145 11.579453 -28.554094 15.827205 -7.809307 -27.775639 8.915373 -13.714073 47.802767 -55.126000 -11.004474 -14.825808 -119.741908 19.320684 3.004933 2.393643 14.480594 -43.035135 46.439470 12.320489 -9.764603 -22.318135 -0.441746 -32.010931 171.570837 -10.842185 -7.976397 28.668785
0.274214 1.038694 -0.525944 83.842512 7.912119 -13.818280 -22.550815 6.276367 -24.690241 -9.877988 -0.476136 2.615302 -0.764959 3.466455 -2.046056 -19.882627 -15.476796 3.254855 -9.418941 -8.680489 2.330640 -10.522952 6.583309 -4.252024 -40.154551 23.448792 68.879414 47.752722 -22.009818 -28.837217 -4.796818 -18.270064 -5.350078 -19.721739 -20.545750 34.463770 -0.686754 3.243192 -1.582445 1.531589 5.188328 -52.522400 -3.297969 -16.762465 -13.869052 13.217884 -2.952167 -8.329528 10.947180 -30.301418 16.861010 -8.166076 -28.746329 11.584997 -12.349120 47.876176 -56.894500 -9.242065 -13.676063 -119.761710 18.369516 5.392839 3.725025 17.381046 -42.340736 43.995936 11.952753 -8.437293 -22.408340 -0.384919 -30.043620 170.728330 -11.701214 -9.869119 27.931816
0.286940 1.041231 -0.542024 83.401773 7.851987 -14.063961 -22.567874 6.689296 -24.723453 -9.699987 -0.543222 2.938141 -0.467614 3.241290 -1.880453 -20.467560 -15.400203 3.542408 -9.671886 -8.568936 2.570307 -10.266576 6.533766 -4.274783 -39.890363 23.303512 69.936054 47.462226 -22.405955 -28.233799 -4.582690 -18.326064 -5.315383 -18.881719 -20.652706 34.798661 -0.091635 3.096349 -1.613166 2.096454 5.262797 -52.430529 -2.886068 -17.505374 -13.817047 13.446582 -2.661240 -8.126699 10.222790 -30.387310 17.634407 -8.401808 -30.279079 13.895259 -12.985351 48.323270 -59.183801 -6.901630 -13.031638 -118.341346 17.821556 5.653768 3.615181 18.556227 -42.110985 42.550468 11.398709 -6.359526 -22.803335 0.985338 -29.510764 169.011574 -11.696592 -10.245020 27.295183
0.299958 1.043924 -0.557948 82.979532 7.438044 -14.149766 -22.164121 7.173686 -24.881375 -9.420524 -0.455430 3.026914 -0.512645 3.145024 -1.786171 -20.754331 -15.362510 3.695549 -9.835491 -8.569819 2.835229 -10.247780 6.764176 -4.289616 -39.013431 22.773823 71.437004 47.403993 -22.780228 -27.546705 -4.337809 -18.239725 -5.318336 -17.392497 -21.094397 34.767513 0.247657 2.813724 -1.454105 2.924755 5.689446 -52.156610 -2.428142 -18.233549 -13.876534 13.798584 -2.351501 -8.008899 9.515697 -30.700970 18.385002 -8.854314 -31.338382 16.373549 -14.183311 48.540900 -61.478436 -4.504125 -12.722509 -116.342497 17.234892 6.062119 3.576115 19.656406 -41.460915 40.765025 10.988957 -4.743246 -23.074096 2.226822 -29.147103 166.871886 -11.564179 -10.610813 26.320276
0.313104 1.046461 -0.574012 82.429319 6.807005 -14.457470 -21.426063 8.084665 -24.911910 -9.082338 -0.468897 3.395599 -0.626038 2.613323 -2.062410 -21.534641 -15.208563 4.062670 -9.770545 -8.413411 3.890934 -10.769477 6.778165 -5.759329 -34.340649 21.802381 75.633792 46.798047 -23.506442 -25.310593 -4.157194 -18.967073 -5.462436 -15.716862 -23.066371 37.468333 -0.169101 3.032585 -1.552264 3.857002 6.792980 -51.675580 -1.572971 -20.169908 -13.686303 14.237958 -1.954766 -7.750359 8.709227 -30.721280 19.885411 -9.581958 -32.135994 19.180043 -14.104913 48.691816 -62.652589 -1.818945 -11.917679 -114.810508 15.858378 8.009748 4.291756 22.821776 -41.047064 37.925833 10.507355 -2.920845 -23.143370 1.797482 -26.793654 166.780787 -12.342421 -12.513181 25.540210
0.325998 1.048767 -0.590233 82.178549 6.286946 -14.628027 -20.957443 8.656297 -25.056090 -8.808262 -0.218937 3.598912 -0.661622 2.643390 -1.738818 -22.141866 -15.385738 4.311996 -10.010033 -8.472991 4.112950 -10.829313 7.144843 -5.630747 -34.060253 21.227103 76.539007 46.991705 -23.726747 -24.798039 -3.997441 -19.015125 -5.507016 -14.420192 -23.491260 37.336046 0.094775 2.897507 -1.567972 4.486223 6.960515 -51.404922 -0.856238 -21.192065 -13.662166 14.349417 -1.587212 -7.411271 7.916422 -30.721455 20.726915 -10.452796 -32.915737 21.965871 -15.158431 48.559887 -64.135368 1.209374 -11.435445 -112.282473 15.031338 8.214627 4.038790 23.234041 -40.197779 36.428063 10.160044 -1.222689 -23.597979 3.328113 -26.672318 164.327026 -12.118580 -12.718218 24.621545
0.339062 1.051043 -0.606355 82.012584 5.700210 -14.789784 -20.480577 9.269520 -25.191164 -8.587853 -0.050965 3.774537 -0.722464 2.772866 -1.556074 -22.582573 -15.494788 4.748719 -10.143495 -8.488674 4.427179 -10.848378 7.625679 -5.595470 -33.635260 20.407525 77.575874 47.366835 -23.871122 -24.431315 -3.917306 -19.248893 -5.724712 -13.635921 -24.270222 37.208223 0.192259 2.870902 -1.521233 5.105773 7.247535 -50.966901 0.121845 -22.659334 -13.574265 14.354725 -1.174007 -6.937259 6.932226 -30.660278 21.721096 -11.414324 -33.623838 24.719825 -16.039060 48.487220 -65.085342 4.508698 -10.803625 -109.556849 14.022966 8.450245 3.815637 23.956718 -39.377506 34.750768 9.819696 0.512998 -24.032502 4.522352 -26.200731 162.183557 -11.898211 -13.043635 23.540284
0.351946 1.053259 -0.622986 81.806433 5.044398 -14.887116 -19.940418 10.219344 -25.228045 -8.495594 -0.186062 3.943251 -0.726315 2.727667 -1.774657 -23.230104 -15.326685 5.624377 -10.488634 -8.408522 4.755974 -11.090504 8.339093 -5.371801 -32.816775 19.881895 78.410887 48.007813 -23.719623 -24.216757 -4.158526 -20.479634 -6.172165 -14.689913 -25.328920 38.231588 -0.251698 2.546273 -1.581182 5.798907 8.875592 -50.463712 1.486693 -25.098587 -13.662134 13.605304 -0.770607 -6.041497 5.697324 -30.314925 22.996975 -12.526977 -34.220494 27.534056 -15.990251 48.460064 -65.447480 7.701470 -9.739553 -107.485845 12.765608 9.000753 3.715195 25.687583 -38.657522 32.462640 9.470703 2.216792 -24.242820 4.707724 -24.626457 161.032520 -12.299315 -14.489121 22.581331
0.364758 1.055478 -0.639218 81.819053 4.463912 -14.983705 -19.718223 10.935305 -25.296690 -8.451620 -0.041708 4.072370 -0.632466 2.802132 -1.607331 -23.662401 -15.344628 6.059390 -10.588986 -8.405527 4.842056 -11.410477 8.593533 -5.045298 -32.418902 19.531174 78.152936 48.858575 -23.313318 -24.479443 -4.520199 -21.215037 -6.580433 -15.374493 -26.518745 38.643274 -0.057478 2.442182 -1.590015 6.532338 9.590902 -50.171756 2.786365 -26.928758 -13.942943 12.890473 -0.442406 -5.278666 4.476788 -29.914624 24.086249 -13.461392 -34.873050 30.104562 -13.802710 48.554641 -63.893408 12.490065 -7.014006 -105.874008 11.528993 8.424042 3.019205 26.604357 -37.895742 30.611780 9.125556 4.007268 -24.563777 5.446721 -23.836971 159.315246 -12.107227 -14.988799 21.392767
0.377380 1.057695 -0.656091 81.762969 3.812876 -15.199325 -19.519326 12.180263 -25.284593 -8.489807 -0.292319 4.403901 -0.490272 2.612936 -1.496722 -24.354736 -15.062046 6.751293 -10.660202 -8.236106 4.618642 -11.258272 8.691025 -3.302981 -32.916136 20.345670 76.302145 49.971634 -22.573247 -24.971651 -5.546956 -24.123616 -7.583486 -20.255569 -27.864225 42.031785 -0.602091 2.025866 -1.705435 7.549160 11.523612 -49.491487 4.637882 -29.458560 -14.502557 10.804205 -0.242388 -4.048369 3.080389 -28.542228 25.369158 -14.981208 -35.622526 32.937536 -13.475492 49.131120 -63.176614 15.130997 -5.538155 -104.478539 10.628861 8.576340 2.978064 28.719706 -37.123868 28.115112 8.756031 5.889837 -24.665687 4.984904 -21.630392 158.712958 -12.717615 -17.028969 20.336100
0.390544 1.059865 -0.672988 81.916565 3.358318 -15.168959 -19.226302 12.557062 -25.132597 -8.386126 -0.095105 4.512755 -0.603741 2.716051 -1.489840 -24.522431 -15.205977 6.809629 -10.672251 -8.317914 4.611000 -11.646657 8.949711 -3.857066 -32.105488 20.123122 75.905512 49.965387 -22.124822 -24.706819 -6.103917 -24.213904 -7.391010 -19.676790 -28.079199 41.903577 -0.195798 2.002940 -1.348738 8.529744 11.777465 -48.977871 5.801026 -29.999507 -15.056100 10.713542 0.014675 -3.778943 2.171630 -28.606569 26.052592 -15.875781 -36.436146 35.210455 -11.639464 49.550205 -61.298536 18.587099 -2.501139 -103.926864 9.952370 7.999399 2.560992 28.948362 -36.221950 26.420291 8.358251 7.700092 -24.769696 6.358619 -22.346731 156.317780 -11.368620 -15.608594 18.617301
0.404239 1.061800 -0.689952 81.841063 2.783328 -15.263051 -18.958413 13.144629 -24.917473 -8.210355 -0.048197 4.661093 -0.652740 2.586755 -1.418624 -24.978719 -14.828909 7.268809 -10.755251 -8.091589 4.602537 -11.674928 8.756457 -4.400844 -31.136051 20.560469 74.954470 49.482600 -21.566231 -24.050723 -6.986878 -24.709060 -7.080322 -19.725968 -28.055078 42.724812 -0.069631 2.062238 -1.143090 9.503847 12.594245 -48.346721 7.496448 -31.335425 -15.728974 9.977077 0.193127 -3.261516 0.964566 -28.278763 26.966489 -16.841052 -36.760883 37.531129 -8.504140 49.494969 -58.206935 22.297476 1.158570 -103.231982 9.371372 7.259170 2.016999 29.134043 -35.055002 24.763991 8.047691 9.413004 -24.998153 7.624958 -21.611831 154.152392 -11.741200 -16.667300 18.273326
